<?xml version="1.0" standalone="no"?>
<!DOCTYPE svg PUBLIC "-//W3C//DTD SVG 20010904//EN"
 "http://www.w3.org/TR/2001/REC-SVG-20010904/DTD/svg10.dtd">
<svg version="1.0" xmlns="http://www.w3.org/2000/svg"
 width="138" height="29" viewBox="0 0 138 29" fill="none">

<g transform="translate(0.000000,284.000000) scale(0.100000,-0.100000)"
fill="#000000" stroke="none">
<path d="M1484 2773 c-31 -33 -80 -134 -93 -193 -6 -25 -11 -70 -11 -100 l0
-54 -37 36 c-21 20 -64 52 -96 72 -61 36 -192 74 -221 63 -22 -9 -21 -64 5
-140 24 -72 48 -114 101 -178 l37 -46 -70 -7 c-87 -8 -159 -33 -233 -80 -72
-46 -72 -67 -1 -114 73 -47 150 -73 238 -79 l77 -6 -44 -47 c-69 -74 -131
-214 -124 -282 3 -30 6 -33 41 -36 70 -6 183 41 270 112 l54 44 6 -71 c9 -126
85 -282 137 -282 52 0 128 156 137 282 l6 71 54 -44 c84 -68 190 -114 265
-114 48 0 55 15 40 88 -17 82 -65 175 -118 232 l-47 50 55 0 c29 0 81 7 113
16 62 15 172 72 194 98 21 25 2 54 -57 89 -75 44 -142 66 -224 74 l-67 6 43
56 c70 89 116 196 116 269 0 42 -16 48 -91 32 -85 -18 -171 -61 -229 -116
l-50 -47 0 54 c0 96 -49 233 -105 293 -30 33 -40 33 -71 -1z m67 -150 c34 -85
34 -246 0 -320 -13 -29 -27 -53 -31 -53 -4 0 -18 24 -31 53 -20 44 -24 68 -24
157 0 88 4 115 24 163 13 31 27 57 31 57 5 0 19 -26 31 -57z m-357 -150 c68
-34 138 -103 174 -171 59 -113 54 -121 -44 -72 -76 38 -156 118 -194 194 -48
96 -41 102 64 49z m746 24 c0 -32 -63 -136 -112 -185 -48 -49 -153 -112 -185
-112 -10 0 -12 7 -7 23 33 106 114 201 216 252 78 39 88 41 88 22z m-637 -377
c31 -12 57 -26 57 -31 0 -5 -21 -20 -47 -32 -41 -18 -66 -22 -168 -22 -102 0
-127 4 -167 22 -27 12 -48 27 -48 32 0 10 64 37 122 52 55 14 187 3 251 -21z
m750 0 c31 -12 57 -26 57 -31 0 -5 -21 -20 -47 -32 -41 -18 -66 -22 -168 -22
-102 0 -127 4 -167 22 -27 12 -48 27 -48 32 0 10 64 37 122 52 55 14 187 3
251 -21z m-517 -11 c10 -17 -13 -36 -27 -22 -12 12 -4 33 11 33 5 0 12 -5 16
-11z m-126 -142 c0 -32 -63 -136 -112 -185 -48 -49 -153 -112 -185 -112 -10 0
-12 7 -8 23 30 102 115 201 217 252 78 39 88 41 88 22z m314 -24 c68 -34 138
-103 174 -171 59 -113 54 -121 -44 -72 -76 38 -156 118 -194 194 -48 96 -41
102 64 49z m-173 -70 c20 -48 24 -75 24 -163 0 -89 -4 -113 -24 -157 -13 -29
-27 -53 -31 -53 -4 0 -18 24 -31 53 -20 44 -24 68 -24 157 0 88 4 115 24 163
13 31 27 57 31 57 4 0 18 -26 31 -57z"/>
<path d="M1482 2498 c-18 -18 -15 -53 6 -71 24 -22 45 -21 65 1 34 37 15 82
-33 82 -14 0 -31 -5 -38 -12z"/>
<path d="M1217 2379 c-29 -41 12 -92 58 -71 46 21 31 92 -20 92 -13 0 -30 -9
-38 -21z"/>
<path d="M1747 2379 c-29 -41 12 -92 58 -71 46 21 31 92 -20 92 -13 0 -30 -9
-38 -21z"/>
<path d="M1110 2120 c-11 -11 -20 -23 -20 -28 0 -20 34 -52 55 -52 21 0 55 32
55 52 0 14 -39 48 -55 48 -8 0 -24 -9 -35 -20z"/>
<path d="M1860 2120 c-11 -11 -20 -23 -20 -28 0 -20 34 -52 55 -52 21 0 55 32
55 52 0 14 -39 48 -55 48 -8 0 -24 -9 -35 -20z"/>
<path d="M1215 1846 c-28 -43 18 -91 63 -67 26 14 33 45 15 70 -19 29 -59 27
-78 -3z"/>
<path d="M1747 1849 c-29 -41 12 -92 58 -71 46 21 31 92 -20 92 -13 0 -30 -9
-38 -21z"/>
<path d="M1482 1748 c-18 -18 -15 -53 6 -71 24 -22 45 -21 65 1 34 37 15 82
-33 82 -14 0 -31 -5 -38 -12z"/>
<path d="M704 1217 c-55 -19 -100 -54 -119 -93 -17 -36 -20 -120 -6 -157 19
-50 75 -99 161 -142 97 -49 120 -67 120 -96 0 -59 -109 -83 -149 -33 -11 14
-23 45 -27 70 l-6 44 -49 0 c-26 0 -51 -5 -54 -10 -4 -6 -9 -44 -12 -84 l-6
-73 44 -18 c54 -23 225 -32 286 -16 85 23 134 88 134 176 0 97 -40 142 -193
219 -82 41 -105 57 -112 79 -15 41 2 61 52 65 57 4 79 -10 99 -69 l18 -51 40
7 c22 3 44 10 48 14 4 4 7 39 5 77 l-3 68 -45 13 c-69 21 -179 25 -226 10z"/>
<path d="M184 1198 c3 -13 6 -29 6 -35 0 -7 6 -13 14 -13 8 0 22 -10 30 -22
23 -33 23 -403 0 -436 -8 -12 -22 -22 -30 -22 -8 0 -14 -6 -14 -12 0 -7 -3
-23 -6 -35 l-6 -23 161 0 161 0 0 30 c0 22 -7 33 -29 44 -19 10 -30 26 -35 47
-10 50 -7 365 4 394 5 14 21 30 35 35 19 7 25 17 25 40 l0 30 -161 0 -161 0 6
-22z"/>
<path d="M1070 1201 c0 -30 11 -51 26 -51 7 0 20 -10 28 -22 13 -19 16 -57 16
-218 0 -161 -3 -199 -16 -218 -8 -12 -21 -22 -28 -22 -15 0 -26 -21 -26 -51 0
-18 10 -19 260 -19 l260 0 4 23 c3 12 8 40 11 62 4 22 9 49 11 61 4 15 -2 23
-21 32 -49 23 -71 16 -83 -26 -16 -53 -43 -74 -99 -79 -40 -4 -51 -1 -68 17
-18 20 -20 39 -23 209 -3 202 2 236 43 251 19 7 25 17 25 40 l0 30 -160 0
c-151 0 -160 -1 -160 -19z"/>
<path d="M1841 1043 c-108 -258 -155 -356 -180 -371 -14 -8 -21 -22 -21 -42
l0 -30 95 0 95 0 0 35 c0 24 -6 37 -20 45 -13 7 -20 21 -20 40 l0 30 109 0
109 0 7 -27 c5 -21 2 -31 -14 -42 -11 -9 -24 -31 -27 -48 l-6 -33 156 0 156 0
0 25 c0 14 -11 36 -24 48 -29 27 -45 59 -167 327 l-98 215 -38 3 -38 3 -74
-178z m94 -131 c20 -52 35 -96 32 -98 -3 -3 -36 -4 -74 -2 l-70 3 36 97 c20
53 36 96 37 95 1 -1 18 -44 39 -95z"/>
<path d="M2300 1186 c0 -26 5 -36 21 -41 15 -5 43 -52 95 -158 68 -139 74
-157 74 -214 0 -70 -12 -89 -65 -99 -19 -3 -35 -11 -35 -18 0 -6 -3 -21 -6
-33 l-6 -23 196 0 196 0 0 34 c0 31 -3 34 -35 40 -41 8 -51 24 -61 93 -6 47
-2 59 62 199 38 82 78 159 90 171 12 12 25 36 29 53 l7 30 -91 0 -91 0 0 -30
c0 -19 7 -33 20 -40 11 -6 20 -20 20 -30 0 -26 -71 -203 -78 -195 -11 11 -72
177 -72 196 0 11 7 22 15 25 9 4 15 19 15 40 l0 34 -150 0 -150 0 0 -34z"/>
<path d="M697 433 c-2 -5 -5 -56 -6 -115 -1 -102 0 -108 19 -108 17 0 20 7 20
50 l0 50 45 0 45 0 0 -50 c0 -43 3 -50 20 -50 19 0 20 7 20 115 0 108 -1 115
-20 115 -17 0 -20 -7 -20 -51 0 -48 -1 -51 -22 -45 -13 3 -33 6 -45 6 -20 0
-23 5 -23 45 0 33 -4 45 -14 45 -8 0 -17 -3 -19 -7z"/>
<path d="M937 429 c-44 -25 -61 -114 -32 -169 19 -36 43 -50 88 -50 53 0 87
45 87 115 0 71 -34 115 -88 115 -21 0 -45 -5 -55 -11z m88 -39 c25 -28 26
-101 1 -129 -42 -47 -96 -11 -96 64 0 74 53 111 95 65z"/>
<path d="M1090 425 c0 -10 10 -15 30 -15 l30 0 0 -100 c0 -93 1 -100 20 -100
19 0 20 7 20 100 l0 100 25 0 c16 0 25 6 25 15 0 12 -15 15 -75 15 -60 0 -75
-3 -75 -15z"/>
<path d="M1270 325 l0 -115 65 0 c51 0 65 3 65 15 0 11 -12 15 -50 15 l-50 0
0 35 c0 33 2 35 35 35 28 0 35 4 35 19 0 10 -6 19 -12 18 -50 -2 -58 3 -58 33
0 29 2 30 45 30 33 0 45 4 45 15 0 12 -13 15 -60 15 l-60 0 0 -115z"/>
<path d="M1430 325 l0 -115 55 0 c42 0 55 3 55 15 0 11 -11 15 -40 15 l-40 0
0 100 c0 82 -3 100 -15 100 -12 0 -15 -19 -15 -115z"/>
<path d="M1650 420 c-23 -23 -24 -29 -10 -65 8 -20 6 -32 -5 -48 -30 -43 -11
-97 35 -97 90 -2 111 1 100 15 -6 7 -9 31 -8 53 3 41 -14 60 -20 22 -4 -26
-10 -25 -32 2 -17 22 -17 23 1 47 48 60 -8 124 -61 71z m48 -37 c-4 -39 -28
-42 -28 -4 0 21 5 31 16 31 11 0 14 -8 12 -27z m1 -112 c22 -30 19 -41 -10
-41 -22 0 -38 26 -32 51 7 26 18 24 42 -10z"/>
<path d="M1880 420 c-37 -37 -24 -65 50 -113 20 -13 35 -31 35 -42 0 -17 -7
-20 -45 -20 -43 0 -64 -10 -54 -27 6 -10 85 -11 109 -2 21 8 35 45 28 73 -3
11 -27 34 -54 51 -27 16 -49 36 -49 44 0 19 31 29 63 21 15 -4 28 -2 32 5 20
33 -83 42 -115 10z"/>
<path d="M2040 325 c0 -96 3 -115 15 -115 11 0 15 11 15 40 0 39 1 40 33 40
44 0 69 28 69 76 0 50 -29 74 -88 74 l-44 0 0 -115z m81 75 c21 -12 25 -50 7
-68 -7 -7 -22 -12 -35 -12 -21 0 -23 5 -23 45 0 48 11 56 51 35z"/>
<path d="M2208 325 c-32 -103 -34 -115 -18 -115 11 0 22 12 29 30 8 25 16 30
41 30 25 0 33 -5 41 -30 10 -28 39 -43 39 -19 0 6 -14 58 -32 115 -43 140 -53
139 -100 -11z m62 33 c0 -7 3 -23 6 -35 5 -19 2 -23 -16 -23 -18 0 -21 4 -16
23 3 12 6 28 6 35 0 6 5 12 10 12 6 0 10 -6 10 -12z"/>
</g>
</svg>
